<?xml version="1.0" standalone="no"?>
<!DOCTYPE svg PUBLIC "-//W3C//DTD SVG 20010904//EN"
 "http://www.w3.org/TR/2001/REC-SVG-20010904/DTD/svg10.dtd">
<svg version="1.0" xmlns="http://www.w3.org/2000/svg"
 width="1824.000000pt" height="1824.000000pt" viewBox="0 0 1824.000000 1824.000000"
 preserveAspectRatio="xMidYMid meet">
<metadata>
Created by potrace 1.11, written by Peter Selinger 2001-2013
</metadata>
<g transform="translate(0.000000,1824.000000) scale(0.100000,-0.100000)"
fill="#000000" stroke="none">
<path d="M7060 12664 c-561 -19 -738 -27 -935 -39 -794 -51 -1476 -129 -2250
-260 -662 -112 -1021 -197 -1470 -348 -807 -273 -1271 -494 -1645 -786 -181
-141 -386 -360 -493 -526 -326 -509 -353 -1159 -73 -1740 112 -233 278 -464
421 -585 55 -47 133 -96 140 -88 2 2 -22 59 -52 128 -30 69 -72 167 -95 219
-64 148 -82 252 -82 471 0 157 3 201 23 289 107 487 443 913 1031 1311 612
413 1328 690 2585 1000 1306 322 2580 489 4130 541 455 15 1659 6 2070 -15
1514 -79 2720 -257 3940 -581 651 -173 1348 -415 1810 -628 116 -53 202 -83
212 -74 12 13 -87 68 -294 163 -453 209 -524 239 -783 331 -102 36 -250 90
-330 120 -1219 464 -3355 876 -5330 1027 -623 48 -1095 66 -1800 70 -349 2
-678 2 -730 0z"/>
<path d="M13385 10665 c-175 -34 -269 -45 -399 -45 l-139 0 7 -47 c8 -57 27
-80 80 -94 170 -43 218 -91 245 -246 7 -37 11 -402 12 -998 1 -903 0 -943 -19
-1007 -10 -37 -31 -83 -46 -102 -32 -43 -105 -72 -204 -82 l-72 -7 0 -68 0
-69 490 0 490 0 0 69 0 68 -72 7 c-40 4 -90 12 -110 18 -55 16 -116 72 -127
116 -27 107 -33 824 -18 1930 l8 572 -28 -1 c-15 0 -59 -7 -98 -14z"/>
<path d="M15345 10649 c-130 -23 -189 -28 -317 -29 l-158 0 0 -80 0 -80 78 0
c180 0 248 -56 271 -224 13 -92 15 -686 2 -686 -4 0 -69 27 -143 60 -172 77
-249 94 -388 86 -377 -19 -598 -236 -676 -661 -23 -127 -26 -480 -5 -595 64
-353 229 -543 523 -604 96 -20 184 -20 280 -2 139 28 202 56 364 163 44 29 83
53 87 53 4 0 7 -48 7 -106 l0 -106 27 7 c69 17 302 45 431 51 l142 7 0 66 0
67 -82 12 c-109 16 -167 45 -194 99 -18 34 -22 70 -30 224 -11 229 -12 883 -1
1692 l8 617 -33 -1 c-18 -1 -105 -14 -193 -30z m-430 -1126 c108 -35 207 -120
252 -219 13 -29 37 -106 54 -170 27 -107 29 -130 29 -293 0 -307 -23 -467 -87
-599 -82 -169 -260 -274 -440 -259 -122 9 -241 96 -301 220 -70 144 -107 374
-99 627 6 206 31 322 97 457 109 221 283 304 495 236z"/>
<path d="M2222 10363 l3 -78 85 -7 c47 -3 104 -14 127 -23 92 -37 136 -130
134 -289 0 -50 -2 -458 -4 -906 l-3 -815 -23 -50 c-43 -96 -97 -131 -232 -148
l-89 -11 0 -68 0 -68 520 0 520 0 0 69 0 68 -87 6 c-176 13 -241 77 -263 262
-5 50 -10 235 -10 413 l0 322 208 0 c353 0 539 36 703 136 142 86 254 244 304
429 26 95 31 267 11 359 -46 206 -183 354 -396 426 -134 46 -204 50 -878 50
l-633 0 3 -77z m1180 -88 c106 -22 185 -64 252 -134 142 -150 190 -388 119
-601 -58 -177 -176 -285 -368 -336 -56 -15 -105 -19 -240 -19 -93 0 -191 4
-216 8 l-47 8 -7 142 c-4 78 -3 313 2 521 l8 380 30 8 c135 39 339 49 467 23z"/>
<path d="M17460 9981 c0 -5 37 -83 83 -172 82 -163 132 -297 164 -439 26 -115
23 -354 -6 -490 -75 -344 -246 -636 -550 -940 -280 -279 -505 -432 -1006 -683
-573 -286 -1106 -475 -1910 -676 -1951 -488 -3991 -668 -6350 -561 -1052 48
-1995 156 -2860 329 -1133 226 -2263 567 -2915 879 -109 53 -202 86 -219 80
-16 -5 111 -86 234 -149 115 -60 848 -357 1115 -452 544 -194 1229 -383 2185
-602 1109 -254 2701 -443 4345 -517 359 -16 1527 -16 1865 0 1370 66 2470 214
3616 487 633 151 1071 309 1621 587 386 194 611 342 801 527 635 615 748 1579
270 2306 -109 166 -294 367 -419 458 -54 39 -64 43 -64 28z"/>
<path d="M6555 9699 c-248 -34 -457 -152 -554 -314 -100 -167 -146 -436 -121
-720 23 -271 51 -389 122 -508 137 -234 419 -353 765 -325 406 34 634 257 698
684 20 132 20 439 0 561 -54 330 -243 533 -565 607 -85 20 -257 27 -345 15z
m224 -170 c171 -39 286 -175 334 -398 39 -178 26 -637 -24 -819 -57 -212 -177
-320 -367 -330 -155 -8 -262 28 -345 117 -61 65 -103 154 -130 278 -20 89 -22
125 -21 383 1 249 4 298 22 385 46 216 151 347 309 384 52 12 169 13 222 0z"/>
<path d="M8842 9700 c-141 -20 -221 -54 -376 -161 -55 -38 -103 -69 -108 -69
-4 0 -8 49 -8 109 0 61 -4 112 -9 115 -5 4 -65 -7 -132 -24 -115 -28 -137 -30
-311 -30 l-188 0 0 -69 0 -68 73 -7 c164 -16 237 -84 257 -239 5 -39 10 -272
10 -517 0 -482 -3 -518 -54 -599 -33 -51 -97 -82 -202 -95 l-84 -10 0 -68 0
-68 498 2 497 3 0 65 0 64 -100 17 c-115 18 -164 39 -200 81 -44 52 -47 88
-40 428 7 359 17 469 52 589 71 247 214 363 428 349 171 -12 268 -108 312
-310 13 -61 15 -146 14 -513 -1 -258 -6 -456 -12 -478 -13 -50 -64 -106 -117
-130 -24 -10 -77 -21 -118 -24 l-74 -6 0 -68 0 -69 490 0 490 0 0 68 0 68 -92
18 c-158 29 -221 44 -228 56 -3 6 -11 117 -18 248 -13 277 5 675 34 772 43
145 148 271 280 337 69 33 85 37 153 38 165 0 281 -103 328 -292 15 -59 17
-127 18 -518 0 -449 0 -450 -23 -500 -44 -96 -113 -139 -241 -151 l-71 -7 0
-68 0 -69 490 0 490 0 0 69 0 68 -62 7 c-148 16 -223 58 -252 143 -14 40 -15
107 -10 547 7 545 2 622 -42 713 -47 98 -174 188 -320 229 -34 9 -116 18 -194
21 -214 8 -298 -21 -494 -171 -54 -42 -102 -76 -106 -76 -4 0 -19 17 -34 38
-89 129 -246 205 -446 216 -47 2 -113 1 -148 -4z"/>
<path d="M11765 9699 c-289 -32 -499 -194 -599 -461 -57 -153 -71 -253 -71
-503 0 -255 10 -323 65 -462 86 -214 253 -363 465 -417 161 -40 382 -40 539 0
279 72 459 295 522 644 25 138 23 399 -5 551 -51 292 -164 462 -375 564 -149
73 -356 105 -541 84z m240 -175 c195 -50 312 -221 355 -519 15 -105 12 -318
-6 -456 -30 -234 -85 -371 -185 -464 -85 -78 -145 -99 -289 -99 -106 -1 -119
1 -171 27 -207 101 -298 397 -268 877 24 405 111 583 308 636 65 18 186 17
256 -2z"/>
<path d="M4800 9680 c-153 -34 -203 -40 -353 -40 l-148 0 3 -67 3 -68 76 -12
c42 -6 95 -21 118 -33 51 -26 96 -92 110 -164 6 -29 11 -263 13 -536 2 -438 1
-491 -15 -542 -33 -109 -106 -159 -255 -174 l-72 -7 0 -68 0 -69 480 0 480 0
0 69 0 68 -52 6 c-96 12 -160 36 -199 77 -60 63 -64 91 -64 490 0 393 4 431
67 557 76 155 259 247 359 180 51 -34 71 -84 77 -193 l5 -94 103 0 104 0 0
290 0 289 -37 8 c-21 4 -108 8 -193 8 -127 0 -163 -3 -199 -18 -73 -30 -122
-72 -201 -172 -41 -52 -78 -95 -82 -95 -4 0 -8 74 -8 165 0 190 13 174 -120
145z"/>
</g>
</svg>
