<?xml version="1.0" standalone="yes"?>
<svg xmlns="http://www.w3.org/2000/svg" width="924" height="367">
<path style="fill:#fdfefe; stroke:none;" d="M0 0L0 367L924 367L924 0L0 0z"/>
<path style="fill:#0f68a0; stroke:none;" d="M44 224C41.2496 215.835 36.4928 208.386 34.0432 200C31.9803 192.938 31.5854 184.321 32.0895 177C34.0558 148.448 53.2821 126.303 74.9853 109.627C114.721 79.0947 165.144 64.8529 213 52.8734C294.601 32.4468 378.082 25 462 25C536.552 25 611.044 30.7172 684 46.517C715.643 53.3698 747.594 62.0941 778 73.3202C787.073 76.6702 796.104 80.0115 805 83.8719C811.044 86.4948 816.408 89.8788 823 91C818.088 86.3702 811.024 84.2667 805 81.3734C792.561 75.3989 780.123 69.6763 767 65.4059C755.898 61.7932 745.139 57.0111 734 53.463C706.476 44.6955 678.276 37.5399 650 31.7145C544.758 10.0326 438.28 1.26254 331 5.96063C288.861 7.80603 247.61 12.0042 206 18.8055C180.012 23.0534 153.002 28.0947 128 36.6443C89.8637 49.6851 47.085 64.9184 22.1698 98.5756C-0.179798 128.767 1.47791 169.306 21.1157 200C26.7145 208.751 34.3625 219.506 44 224M648 107C648.111 116.325 652.503 112.862 658.895 116.318C662.135 118.07 663.53 121.588 664.319 125C666.212 133.183 665 142.639 665 151L665 199C665 208.508 667.044 221.02 663.121 229.945C660.694 235.467 653.248 235.774 648 236L648 243L697 243L697 236C692.343 235.958 686.024 235.602 682.858 231.582C680.591 228.703 681.011 224.432 681 221C680.982 215.29 680.009 209.71 680 204C679.946 170.621 681 137.324 681 104C675.595 104.277 670.396 106.069 665 106.715C659.408 107.384 653.625 107 648 107M749 107L749 115C753.661 115.003 759.536 114.511 763.276 117.879C766.411 120.702 766.64 126.051 766.911 130C767.613 140.246 767 150.73 767 161C758.421 157.206 751.864 152.821 742 153.015C737.694 153.1 733.101 153.75 729 155.093C709.403 161.515 705 184.034 705 202C705 223.056 710.875 243.743 735 246.714C739.038 247.211 743.016 246.959 747 246.195C756.039 244.463 761.63 240.111 769 235L769 246C779.207 243.894 788.576 243 799 243L799 236C795.014 235.683 789.475 235.423 786.434 232.486C783.624 229.774 784.012 225.571 784 222C783.979 215.629 783 209.384 783 203C782.998 169.962 784 136.981 784 104C777.956 104.31 772.07 106.252 766 106.83C760.395 107.364 754.627 107 749 107M117 116L117 124C122.626 124.016 130.337 123.99 132.991 130.055C136.078 137.11 134 148.405 134 156L134 206C134 213.081 135.545 222.32 132.713 228.96C130.027 235.258 123.036 235.741 117 236L117 243L169 243L169 236C164.271 235.987 158.129 236.119 154.589 232.351C151.566 229.134 151.119 222.188 151.015 218C150.75 207.347 151 196.657 151 186C166.756 186 183.689 187.634 197.575 178.561C215.015 167.165 219.61 135.345 200.985 122.761C190.195 115.471 178.398 116 166 116L117 116z"/>
<path style="fill:#fdfefe; stroke:none;" d="M151 126C151 143.472 149.62 160.519 151 178C161.171 179.888 174.757 180.197 184 174.772C199.668 165.578 200.048 139.887 186.271 128.804C177.58 121.813 160.907 122.461 151 126z"/>
<path style="fill:#0f68a0; stroke:none;" d="M878 138C879.419 142.313 882.113 145.903 884.044 150C889.013 160.543 892.721 172.215 891.911 184C889.972 212.178 872.987 233.842 852.039 251.192C837.929 262.879 822.308 270.499 806.039 278.463C775.137 293.591 741.37 303.09 708 311.13C617.333 332.975 525.053 340.294 432 338.015C371.9 336.542 312.014 331.891 253 319.715C217.109 312.309 181.655 302.958 147 290.996C136.967 287.533 126.827 283.513 117.09 279.266C111.017 276.618 105.67 273 99 272C112.146 282.233 129.723 287.296 144.91 293.731C184.706 310.595 226.173 320.537 268 330.59C316.646 342.283 366.353 348.445 416 353.17C535.939 364.584 658.638 361.585 776 332.335C802.288 325.783 827.992 315.938 852 303.546C866.475 296.074 881.714 287.156 892.83 274.996C923.119 241.863 926.263 192.493 898.181 156.999C892.601 149.946 885.828 142.525 878 138M221 156L221 163C224.888 163.307 229.731 163.49 232.722 166.317C236.614 169.996 236.975 176.012 236.999 181C237.045 190.333 237 199.667 237 209C237 215.069 238.105 226.578 234.142 231.581C231.147 235.362 224.432 235.807 220 236L220 243L268 243L268 236C263.726 235.805 257.666 235.243 254.728 231.697C251.53 227.838 252.002 221.67 252 217C251.995 204.783 249.609 187.724 256.8 177.09C260.561 171.529 270.96 165.025 275.821 173.214C277.766 176.491 277 181.344 277 185L288 185L288 156C279.197 155.304 269.93 152.689 262.039 158.513C257.887 161.578 255.663 166.478 252 170L252 153C246.865 153.409 242.072 155.208 237 155.816C231.763 156.443 226.27 156 221 156M331 153.464C322.846 154.905 314.126 158.52 308.557 164.873C299.41 175.309 298.588 192.997 299.83 206C300.805 216.207 301.536 225.64 308.379 233.985C318.219 245.986 335.555 248.554 350 245.686C374.645 240.792 380 219.97 380 198C380 187.379 378.961 175.81 372.39 167.001C363.063 154.495 345.793 150.85 331 153.464M391 156L391 163C395.228 163.182 400.47 163.348 403.786 166.317C408.113 170.191 407.998 175.68 408 181L408 209C408 215.548 409.54 226.065 405.143 231.581C402.054 235.456 395.543 235.903 391 236L391 243L441 243L441 236C436.49 235.641 428.989 235.233 425.858 231.49C422.052 226.939 424 216.547 424 211C424 194.026 422.715 161.922 448 163.041C467.443 163.901 464.604 189.625 464.039 203C463.913 205.993 464 209.005 464 212C464 217.344 465.598 225.84 462.682 230.557C459.431 235.816 453.493 235.985 448 236L448 243L497 243L497 236C491.505 235.749 486.427 233.731 481 233C480.818 222.82 479.207 212.118 480.17 202C480.817 195.199 480.127 187.56 482.043 181C486.122 167.036 505.342 154.254 516.772 169.519C520.461 174.444 520.991 182.101 521 188L521 215C521 219.909 521.599 226.228 518.698 230.518C515.417 235.368 509.291 235.982 504 236L504 243L553 243L553 236C548.808 235.666 542.736 235.346 539.514 232.297C534.64 227.685 537 215.109 537 209L537 182C537 176.302 537.527 170.209 534.721 165.005C530.628 157.412 520.142 153.688 512 153.09C507.039 152.726 501.763 152.752 497 154.289C489.593 156.68 485.187 161.659 479 166C471.695 151.927 451.586 150.007 438.039 155.629C432.501 157.927 428.271 162.283 423 165L423 153C418.893 153.556 415.077 155.218 411 155.791C404.521 156.702 397.537 156 391 156M591 153.443C566.865 157.492 560 179.325 560 201C560 213.686 561.661 225.891 570.528 235.701C580.548 246.787 598.109 248.423 612 245.664C638.319 240.437 643.046 211.469 640.285 189C639.198 180.154 637.16 172.112 631.33 165.04C622.182 153.944 604.546 151.17 591 153.443z"/>
<path style="fill:#fdfefe; stroke:none;" d="M334 161.519C322.721 163.983 319.064 173.749 317.579 184C317.045 187.689 317.123 191.291 316.961 195C316.267 210.814 315.979 238.34 338 238.985C340.226 239.05 342.636 239.177 344.83 238.736C358.974 235.891 361.252 221.944 362.09 210C363.303 192.692 364.962 163.605 342 161.174C339.356 160.894 336.602 160.95 334 161.519M594 161.468C583.714 163.463 580.593 172.912 578.669 182C577.965 185.324 578.151 188.642 577.83 192C576.099 210.116 577.343 243.158 604 238.674C616.471 236.577 620.806 226.19 622.75 215C625.866 197.063 626.196 163.001 602 161.093C599.361 160.885 596.602 160.964 594 161.468M738.001 161.819C731.72 164.097 727.99 170.15 725.468 176C719.554 189.72 720.605 210.086 725.055 224C728.778 235.641 738.965 242.048 750.911 237.616C767.197 231.573 768 213.708 768 199C768 194.434 768.513 189.498 767.621 185C766.911 181.419 765.641 177.558 764.482 174.09C761.08 163.909 748.056 158.171 738.001 161.819z"/>
</svg>
