<?xml version="1.0" encoding="UTF-8" standalone="no"?>
<svg
   xmlns:dc="http://purl.org/dc/elements/1.1/"
   xmlns:cc="http://creativecommons.org/ns#"
   xmlns:rdf="http://www.w3.org/1999/02/22-rdf-syntax-ns#"
   xmlns:svg="http://www.w3.org/2000/svg"
   xmlns="http://www.w3.org/2000/svg"
   xmlns:sodipodi="http://sodipodi.sourceforge.net/DTD/sodipodi-0.dtd"
   xmlns:inkscape="http://www.inkscape.org/namespaces/inkscape"
   width="455.80682"
   height="177.31123"
   version="1.1"
   id="svg3770"
   sodipodi:docname="logo.svg"
   viewBox="0 0 911.61365 354.62247"
   inkscape:version="0.92.2 (5c3e80d, 2017-08-06)">
  <metadata
     id="metadata3776">
    <rdf:RDF>
      <cc:Work
         rdf:about="">
        <dc:format>image/svg+xml</dc:format>
        <dc:type
           rdf:resource="http://purl.org/dc/dcmitype/StillImage" />
        <dc:title></dc:title>
      </cc:Work>
    </rdf:RDF>
  </metadata>
  <defs
     id="defs3774" />
  <sodipodi:namedview
     pagecolor="#ffffff"
     bordercolor="#666666"
     borderopacity="1"
     objecttolerance="10"
     gridtolerance="10"
     guidetolerance="10"
     inkscape:pageopacity="0"
     inkscape:pageshadow="2"
     inkscape:window-width="1920"
     inkscape:window-height="1017"
     id="namedview3772"
     showgrid="false"
     scale-x="2"
     fit-margin-top="0"
     fit-margin-left="0"
     fit-margin-right="0"
     fit-margin-bottom="0"
     inkscape:zoom="0.77056277"
     inkscape:cx="149.67246"
     inkscape:cy="-177.99655"
     inkscape:window-x="1912"
     inkscape:window-y="-8"
     inkscape:window-maximized="1"
     inkscape:current-layer="svg3770" />
  <path
     style="fill:#0f68a0;stroke:none"
     d="m 38.103334,219.27146 c -2.7504,-8.165 -7.5072,-15.614 -9.9568,-24 -2.0629,-7.062 -2.4578,-15.679 -1.9537,-23 1.9663,-28.552 21.1926,-50.697 42.8958,-67.373 39.735696,-30.532297 90.158696,-44.774097 138.014696,-56.753597 81.601,-20.4266 165.082,-27.8734 249,-27.8734 74.552,0 149.044,5.7172 222,21.517 31.643,6.8528 63.594,15.5771 94,26.8032 9.073,3.35 18.104,6.6913 27,10.5517 6.044,2.6229 11.408,6.0069 18,7.1281 -4.912,-4.6298 -11.976,-6.7333 -18,-9.6266 -12.439,-5.9745 -24.877,-11.6971 -38,-15.9675 -11.102,-3.6127 -21.861,-8.3948 -33,-11.9429 -27.524,-8.7675 -55.724,-15.9231 -84,-21.7485 -105.242,-21.6819005 -211.72,-30.4519605 -319,-25.7538705 -42.139,1.8454 -83.39,6.04357 -125,12.8448705 -25.988,4.2479 -52.998,9.2892 -78,17.8388 -38.136296,13.0408 -80.914996,28.2741 -105.830196,61.9313 -22.3495983,30.191397 -20.6918903,70.730397 -1.0541,101.424397 5.5988,8.751 13.2468,19.506 22.8843,24 m 603.999996,-117 c 0.111,9.325 4.503,5.862 10.895,9.318 3.24,1.752 4.635,5.27 5.424,8.682 1.893,8.183 0.681,17.639 0.681,26 v 48 c 0,9.508 2.044,22.02 -1.879,30.945 -2.427,5.522 -9.873,5.829 -15.121,6.055 v 7 h 49 v -7 c -4.657,-0.042 -10.976,-0.398 -14.142,-4.418 -2.267,-2.879 -1.847,-7.15 -1.858,-10.582 -0.018,-5.71 -0.991,-11.29 -1,-17 -0.054,-33.379 1,-66.676 1,-99.999997 -5.405,0.277 -10.604,2.068997 -16,2.714997 -5.592,0.669 -11.375,0.285 -17,0.285 m 101,0 v 8 c 4.661,0.003 10.536,-0.489 14.276,2.879 3.135,2.823 3.364,8.172 3.635,12.121 0.702,10.246 0.089,20.73 0.089,31 -8.579,-3.794 -15.136,-8.179 -25,-7.985 -4.306,0.085 -8.899,0.735 -13,2.078 -19.597,6.422 -24,28.941 -24,46.907 0,21.056 5.875,41.743 30,44.714 4.038,0.497 8.016,0.245 12,-0.519 9.039,-1.732 14.63,-6.084 22,-11.195 v 11 c 10.207,-2.106 19.576,-3 30,-3 v -7 c -3.986,-0.317 -9.525,-0.577 -12.566,-3.514 -2.81,-2.712 -2.422,-6.915 -2.434,-10.486 -0.021,-6.371 -1,-12.616 -1,-19 -0.002,-33.038 1,-66.019 1,-98.999997 -6.044,0.31 -11.93,2.251997 -18,2.829997 -5.605,0.534 -11.373,0.17 -17,0.17 m -632,9 v 8 c 5.626,0.016 13.337,-0.01 15.991,6.055 3.087,7.055 1.009,18.35 1.009,25.945 v 50 c 0,7.081 1.545,16.32 -1.287,22.96 -2.686,6.298 -9.677,6.781 -15.713,7.04 v 7 h 52 v -7 c -4.729,-0.013 -10.871,0.119 -14.411,-3.649 -3.023,-3.217 -3.47,-10.163 -3.574,-14.351 -0.265,-10.653 -0.015,-21.343 -0.015,-32 15.756,0 32.689,1.634 46.575,-7.439 17.44,-11.396 22.035,-43.216 3.41,-55.8 -10.79,-7.29 -22.587,-6.761 -34.985,-6.761 z"
     id="path3762"
     inkscape:connector-curvature="0" />
  <path
     style="fill:#fdfefe;stroke:none"
     d="m 145.10333,121.27146 c 0,17.472 -1.38,34.519 0,52 10.171,1.888 23.757,2.197 33,-3.228 15.668,-9.194 16.048,-34.885 2.271,-45.968 -8.691,-6.991 -25.364,-6.343 -35.271,-2.804 z"
     id="path3764"
     inkscape:connector-curvature="0" />
  <path
     style="fill:#0f68a0;stroke:none"
     d="m 872.10333,133.27146 c 1.419,4.313 4.113,7.903 6.044,12 4.969,10.543 8.677,22.215 7.867,34 -1.939,28.178 -18.924,49.842 -39.872,67.192 -14.11,11.687 -29.731,19.307 -46,27.271 -30.902,15.128 -64.669,24.627 -98.039,32.667 -90.667,21.845 -182.947,29.164 -276,26.885 -60.1,-1.473 -119.986,-6.124 -179,-18.3 -35.891,-7.406 -71.345,-16.757 -106,-28.719 -10.033,-3.463 -20.173,-7.483 -29.91,-11.73 -6.073,-2.648 -11.419996,-6.266 -18.089996,-7.266 13.145996,10.233 30.722996,15.296 45.909996,21.731 39.796,16.864 81.263,26.806 123.09,36.859 48.646,11.693 98.353,17.855 148,22.58 119.939,11.414 242.638,8.415 360,-20.835 26.288,-6.552 51.992,-16.397 76,-28.789 14.475,-7.472 29.714,-16.39 40.83,-28.55 30.289,-33.133 33.433,-82.503 5.351,-117.997 -5.58,-7.053 -12.353,-14.474 -20.181,-18.999 m -657,18 v 7 c 3.888,0.307 8.731,0.49 11.722,3.317 3.892,3.679 4.253,9.695 4.277,14.683 0.046,9.333 0.001,18.667 0.001,28 0,6.069 1.105,17.578 -2.858,22.581 -2.995,3.781 -9.71,4.226 -14.142,4.419 v 7 h 48 v -7 c -4.274,-0.195 -10.334,-0.757 -13.272,-4.303 -3.198,-3.859 -2.726,-10.027 -2.728,-14.697 -0.005,-12.217 -2.391,-29.276 4.8,-39.91 3.761,-5.561 14.16,-12.065 19.021,-3.876 1.945,3.277 1.179,8.13 1.179,11.786 h 11 v -29 c -8.803,-0.696 -18.07,-3.311 -25.961,2.513 -4.152,3.065 -6.376,7.965 -10.039,11.487 v -17 c -5.135,0.409 -9.928,2.208 -15,2.816 -5.237,0.627 -10.73,0.184 -16,0.184 m 110,-2.536 c -8.154,1.441 -16.874,5.056 -22.443,11.409 -9.147,10.436 -9.969,28.124 -8.727,41.127 0.975,10.207 1.706,19.64 8.549,27.985 9.84,12.001 27.176,14.569 41.621,11.701 24.645,-4.894 30,-25.716 30,-47.686 0,-10.621 -1.039,-22.19 -7.61,-30.999 -9.327,-12.506 -26.597,-16.151 -41.39,-13.537 m 60,2.536 v 7 c 4.228,0.182 9.47,0.348 12.786,3.317 4.327,3.874 4.212,9.363 4.214,14.683 v 28 c 0,6.548 1.54,17.065 -2.857,22.581 -3.089,3.875 -9.6,4.322 -14.143,4.419 v 7 h 50 v -7 c -4.51,-0.359 -12.011,-0.767 -15.142,-4.51 -3.806,-4.551 -1.858,-14.943 -1.858,-20.49 0,-16.974 -1.285,-49.078 24,-47.959 19.443,0.86 16.604,26.584 16.039,39.959 -0.126,2.993 -0.039,6.005 -0.039,9 0,5.344 1.598,13.84 -1.318,18.557 -3.251,5.259 -9.189,5.428 -14.682,5.443 v 7 h 49 v -7 c -5.495,-0.251 -10.573,-2.269 -16,-3 -0.182,-10.18 -1.793,-20.882 -0.83,-31 0.647,-6.801 -0.043,-14.44 1.873,-21 4.079,-13.964 23.299,-26.746 34.729,-11.481 3.689,4.925 4.219,12.582 4.228,18.481 v 27 c 0,4.909 0.599,11.228 -2.302,15.518 -3.281,4.85 -9.407,5.464 -14.698,5.482 v 7 h 49 v -7 c -4.192,-0.334 -10.264,-0.654 -13.486,-3.703 -4.874,-4.612 -2.514,-17.188 -2.514,-23.297 v -27 c 0,-5.698 0.527,-11.791 -2.279,-16.995 -4.093,-7.593 -14.579,-11.317 -22.721,-11.915 -4.961,-0.364 -10.237,-0.338 -15,1.199 -7.407,2.391 -11.813,7.37 -18,11.711 -7.305,-14.073 -27.414,-15.993 -40.961,-10.371 -5.538,2.298 -9.768,6.654 -15.039,9.371 v -12 c -4.107,0.556 -7.923,2.218 -12,2.791 -6.479,0.911 -13.463,0.209 -20,0.209 m 200,-2.557 c -24.135,4.049 -31,25.882 -31,47.557 0,12.686 1.661,24.891 10.528,34.701 10.02,11.086 27.581,12.722 41.472,9.963 26.319,-5.227 31.046,-34.195 28.285,-56.664 -1.087,-8.846 -3.125,-16.888 -8.955,-23.96 -9.148,-11.096 -26.784,-13.87 -40.33,-11.597 z"
     id="path3766"
     inkscape:connector-curvature="0" />
  <path
     style="fill:#fdfefe;stroke:none"
     d="m 328.10333,156.79046 c -11.279,2.464 -14.936,12.23 -16.421,22.481 -0.534,3.689 -0.456,7.291 -0.618,11 -0.694,15.814 -0.982,43.34 21.039,43.985 2.226,0.065 4.636,0.192 6.83,-0.249 14.144,-2.845 16.422,-16.792 17.26,-28.736 1.213,-17.308 2.872,-46.395 -20.09,-48.826 -2.644,-0.28 -5.398,-0.224 -8,0.345 m 260,-0.051 c -10.286,1.995 -13.407,11.444 -15.331,20.532 -0.704,3.324 -0.518,6.642 -0.839,10 -1.731,18.116 -0.487,51.158 26.17,46.674 12.471,-2.097 16.806,-12.484 18.75,-23.674 3.116,-17.937 3.446,-51.999 -20.75,-53.907 -2.639,-0.208 -5.398,-0.129 -8,0.375 m 144.001,0.351 c -6.281,2.278 -10.011,8.331 -12.533,14.181 -5.914,13.72 -4.863,34.086 -0.413,48 3.723,11.641 13.91,18.048 25.856,13.616 16.286,-6.043 17.089,-23.908 17.089,-38.616 0,-4.566 0.513,-9.502 -0.379,-14 -0.71,-3.581 -1.98,-7.442 -3.139,-10.91 -3.402,-10.181 -16.426,-15.919 -26.481,-12.271 z"
     id="path3768"
     inkscape:connector-curvature="0" />
</svg>
